<svg width="32" height="32" viewBox="0 0 32 32" fill="none" xmlns="http://www.w3.org/2000/svg">
  <!-- Book emoji inspired design - open book with pages -->
  <!-- Left page -->
  <path d="M4 8C4 6.89543 4.89543 6 6 6H14C15.1046 6 16 6.89543 16 8V24C16 25.1046 15.1046 26 14 26H6C4.89543 26 4 25.1046 4 24V8Z" fill="#ffffff" stroke="#000000" stroke-width="1"/>
  
  <!-- Right page -->
  <path d="M16 8C16 6.89543 16.8954 6 18 6H26C27.1046 6 28 6.89543 28 8V24C28 25.1046 27.1046 26 26 26H18C16.8954 26 16 25.1046 16 24V8Z" fill="#ffffff" stroke="#000000" stroke-width="1"/>
  
  <!-- Text lines on left page -->
  <line x1="6" y1="10" x2="14" y2="10" stroke="#000000" stroke-width="0.5"/>
  <line x1="6" y1="12" x2="14" y2="12" stroke="#000000" stroke-width="0.5"/>
  <line x1="6" y1="14" x2="14" y2="14" stroke="#000000" stroke-width="0.5"/>
  <line x1="6" y1="16" x2="12" y2="16" stroke="#000000" stroke-width="0.5"/>
  
  <!-- Text lines on right page -->
  <line x1="18" y1="10" x2="26" y2="10" stroke="#000000" stroke-width="0.5"/>
  <line x1="18" y1="12" x2="26" y2="12" stroke="#000000" stroke-width="0.5"/>
  <line x1="18" y1="14" x2="26" y2="14" stroke="#000000" stroke-width="0.5"/>
  <line x1="18" y1="16" x2="24" y2="16" stroke="#000000" stroke-width="0.5"/>
  
  <!-- Book spine/binding -->
  <line x1="16" y1="6" x2="16" y2="26" stroke="#000000" stroke-width="1"/>
</svg> 